<?xml version="1.0" encoding="UTF-8" standalone="no"?>
<svg width="134px" height="286px" viewBox="0 0 134 286" version="1.1" xmlns="http://www.w3.org/2000/svg" xmlns:xlink="http://www.w3.org/1999/xlink" xmlns:sketch="http://www.bohemiancoding.com/sketch/ns">
    <title>Slice 1</title>
    <description>Created with Sketch (http://www.bohemiancoding.com/sketch)</description>
    <defs></defs>
    <g id="Page-1" stroke="none" stroke-width="1" fill="none" fill-rule="evenodd" sketch:type="MSPage">
        <g id="Group" sketch:type="MSLayerGroup" fill="#FFFFFF">
            <path d="M44,122.93627 C46.078681,123.363706 48.6870741,121.51807 50.7506922,121.056043 C53.5950709,120.416124 56.4871488,119.921977 59.3541218,119.373475 C65.2939276,118.236939 71.1860342,117.152288 77.2438327,116.868153 C82.5058077,116.62108 87.737657,115.664907 92.9820586,115.835388 C94.2548741,115.874919 107.065875,117.80209 105.928626,115.694556 C105.012299,113.997164 100.111834,113.903276 98.4097256,113.621612 C95.8540526,113.196647 93.2983796,113.068168 90.7125808,113.011342 C85.0464178,112.882864 79.8045267,113.876098 74.2011258,114.464132 C68.4496063,115.06699 62.9566667,116.665553 57.2277416,117.377124 C53.9264548,117.789736 45.0644453,119.099224 44,122.93627 C44.3439363,123.007921 44.316321,121.799733 44,122.93627 L44,122.93627 Z M101,111.125372 C98.0489316,108.111075 92.1042074,107.96604 88.1059857,107.368982 C82.5270135,106.532618 77.4666077,107.337558 71.9327282,107.639713 C66.7570854,107.92253 61.0728969,108.826578 56.275532,110.767621 C53.645123,111.831206 43.5969607,113.760163 45.1651855,118 C54.5444723,114.548183 64.697851,112.346078 74.6783742,111.248651 C78.9321213,110.782124 83.8722798,109.887746 88.1185115,110.21649 C92.4148461,110.550069 96.6911396,110.813548 101,111.125372 C99.990424,110.095628 99.9979394,111.052855 101,111.125372 L101,111.125372 Z M111,131.311165 C109.835967,129.662835 105.867671,128.331961 103.889822,127.826473 C100.838644,127.045043 97.7143983,126.563974 94.5825942,126.190353 C89.4275893,125.577418 84.088657,124.793546 78.9134956,125.049952 C73.3805577,125.321011 68.0819383,126.708051 62.7732406,128.034041 C57.0941687,129.450384 51.881214,130.898472 47.3964101,134.703063 C46.6808571,135.311113 45.8947567,135.848347 45.4236003,136.668849 C44.8516618,137.665173 44.5871088,139.638286 46.4440192,138.795806 C49.5808624,137.374579 52.7958117,135.401466 56.1493364,134.529683 C62.7782797,132.805652 69.3139996,131.169531 76.1092334,130.23914 C82.8616348,129.313633 89.3091703,130.060876 96.0615717,130.632298 C98.8456775,130.869169 101.642381,131.211045 104.398772,131.662809 C106.472364,132.002243 109.581492,133.709181 111,131.311165 C110.874022,131.132902 110.410425,132.305048 111,131.311165 L111,131.311165 Z M47.0829021,132 C48.4708479,131.900317 50.5616473,130.482319 51.4979398,129.497945 C52.9569322,127.967804 57.4176427,127.240115 59.406947,126.654474 C65.387547,124.885093 71.9136832,124.035291 78.1277219,123.668955 C84.1793684,123.312586 90.198029,123.040949 96.1913159,124.174848 C98.1780828,124.551153 100.065892,124.209737 101.963851,124.910014 C103.087909,125.3237 108.251473,127.297433 109,126.988414 C108.540735,124.910014 108.048483,121.797397 105.899324,120.755705 C103.118358,119.407486 99.8273785,119.155786 96.7901371,119.098468 C90.3807202,118.971371 84.1489199,118.919037 77.7623395,119.245501 C71.6421837,119.559504 65.5524765,120.289685 59.594713,121.448505 C54.2256212,122.495182 46.0907873,125.191619 47.0829021,132 C47.3899248,131.977571 47.0346919,131.656092 47.0829021,132 L47.0829021,132 Z M47.4540527,148.005846 C49.6243579,148.76401 52.3045843,146.393803 54.52764,145.927822 C58.1523511,145.169659 61.9403374,145.076462 65.6002155,145.42154 C65.5223457,146.280457 53.9800398,147.978139 52.452788,148.411375 C48.7250879,149.471797 44.3819656,152.078772 42.8220588,155.816696 C39.2727055,164.310146 37.5922261,173.55924 36.5447524,182.614385 C35.349075,192.941533 36.4693946,203.235937 36.6402057,213.588273 C36.8059929,223.620719 38.252863,233.519668 38.8783329,243.534483 C39.1747403,248.26482 38.9009402,253.269709 39.5364578,257.937076 C40.2372856,263.072943 41.257128,268.18614 41.8373833,273.327045 C42.1991008,276.55113 43.367147,279.93642 45.1757346,282.331814 C45.9293128,283.329265 45.3942723,283.78769 46.9165002,284.142843 C48.0167244,284.399762 49.2626403,284.520666 50.3829599,284.669276 C53.1310084,285.039542 56.2583579,284.895969 59.0390614,284.815367 C63.7564609,284.679351 68.6748145,284.072316 73.3846782,284.402281 C75.705699,284.563486 78.0970538,284.74484 80.3603003,283.966526 C80.8953408,283.785171 81.581097,283.833029 81.822242,284.422432 C82.1940072,285.331725 84.1683821,284.895969 85.0952832,284.89345 C89.7624442,284.888413 94.432117,284.689426 99.1017899,284.573561 C104.48485,284.437545 110.327593,282.334333 115.683022,283.802803 C118.825443,284.666757 122.932444,283.195768 125.888983,282.261287 C129.076618,281.251242 131.72419,279.966645 131.98543,276.095224 C132.103491,274.35976 131.462949,272.674671 131.540819,270.908981 C131.64632,268.508549 131.601105,266.108117 131.623713,263.702647 C131.673951,258.911858 130.993219,254.206708 130.415476,249.461258 C130.19945,247.695568 130.495857,245.335436 130.628989,243.534483 C130.7998,241.222209 130.445619,238.877191 130.322534,236.569955 C130.053758,231.552472 129.998496,226.517358 129.415728,221.479725 C128.875664,216.782132 129.084154,212.132397 128.365743,207.44236 C127.642308,202.722098 127.011814,197.875895 126.750574,193.107775 C126.627489,190.898773 126.567203,188.687252 126.496869,186.47825 C126.434071,184.609288 126.861098,182.045133 126.167806,180.274405 C125.072606,177.483556 124.969617,173.352697 124.844021,170.377975 C124.683257,166.561968 122.590822,162.388289 120.636543,159.174279 C118.566714,155.773876 116.697841,151.33824 113.143463,149.134276 C109.579039,146.925274 106.089972,145.152027 101.857374,144.643226 C99.5865918,144.371194 97.3107857,144.194877 95.0224199,144.227621 C93.846838,144.242734 89.8980882,145.172177 89.0616165,144.267922 C87.3560178,142.424148 96.9139012,142.33599 97.6925986,142.373772 C100.023667,142.489638 102.201508,142.660917 104.462243,143.295659 C105.5273,143.595398 109.845303,145.86989 110.646608,145.502142 C110.752109,145.275449 109.501169,142.943025 109.373061,142.466968 C108.870675,140.613119 107.936238,140.14462 106.019638,139.731534 C103.462496,139.177394 100.646625,139.595517 98.0442685,139.50484 C96.1100844,139.434313 91.9277255,140.255447 90.2899489,139.477133 C90.3100443,136.469666 103.748855,138.225281 105.672992,138.167349 C106.795823,138.132085 111.397674,137.459561 108.463743,135.585562 C106.08746,134.069234 102.505451,133.958406 99.8051295,133.54532 C93.4373938,132.568019 86.5597369,131.734291 80.1116195,132.079369 C74.2939959,132.389183 68.7878512,133.777051 63.1360148,134.958376 C60.3000489,135.550298 57.7454188,136.215266 55.0702163,137.323545 C53.5304048,137.963324 51.9931053,138.608141 50.4608297,139.263034 C48.9712568,139.900294 49.0491265,140.429246 48.8557081,141.958167 C51.2998134,142.353622 53.7891333,140.482141 56.1754643,140.074093 C59.0591568,139.577886 61.6288584,138.560284 64.6984336,138.507389 C65.791122,138.489757 66.8838103,138.522502 67.9790106,138.535096 C69.4409523,138.552727 67.8534143,139.615668 67.1174196,139.620706 C63.9649508,139.6333 61.608763,140.230259 58.5818906,140.945603 C55.9242715,141.572788 53.3796892,142.391404 50.8426426,143.403968 C48.2754529,144.431645 47.891128,145.40139 47.4540527,148.005846 C48.5015264,148.371074 47.5369463,147.504601 47.4540527,148.005846 L47.4540527,148.005846 Z M45.3829212,142.570256 C43.7839576,142.146226 43.1015652,142.500003 42.8749405,140.721083 C42.756592,139.782696 42.4216909,138.57584 42.7465198,137.644981 C43.5145259,135.44203 43.6202841,133.650564 43.8318006,131.317143 C43.9350408,130.195595 43.9123783,128.88085 44.3631098,127.824537 C44.6300234,127.199783 45.3451504,126.379321 45.3174519,125.659222 C45.0026952,124.916542 44.0735337,125.217629 43.4868273,124.991814 C42.4443534,124.592874 42.0137663,123.197839 42.142187,122.184181 C42.2580175,121.270884 42.9404098,120.633584 43.469201,119.948612 C42.9932889,119.007716 42.902639,117.96144 43.136818,116.940255 C43.564887,115.071008 46.4102869,113.241907 48.079756,112.4089 C52.4435418,110.228531 56.774593,108.745679 61.5211229,107.476097 C71.2307352,104.879225 80.9302753,104.442649 90.8891749,105.619396 C95.1572747,106.123716 99.4908439,106.261714 103.237707,108.647826 C104.466517,109.430652 107.457964,110.499509 107.709769,112.160504 C107.865888,113.181689 107.218749,113.979569 107.598975,115.050936 C108.14791,116.594005 108.515546,116.759603 108.125248,118.445688 C107.674516,120.407769 110.608048,121.408882 110.315954,123.529034 C110.084293,125.222647 109.890403,127.656431 111.308067,128.499473 C112.71314,129.334989 113.936914,130.817841 114.077925,132.486362 C114.291959,135.000436 112.685442,135.258869 111.235043,136.699067 C108.369499,139.544336 114.276851,145.944936 115.825454,147.917054 C118.482,151.304279 121.209051,154.591141 122.888592,158.547922 C123.586093,160.188844 124.396906,161.641587 125.248008,163.199711 C126.154507,164.855687 126.416385,166.737479 126.87467,168.59418 C128.151323,173.762834 128.692704,178.818581 128.96969,184.117706 C129.506036,194.374725 130.397426,204.639271 131.419756,214.733201 C132.447121,224.842186 132.001426,235.141859 132.905407,245.263389 C133.774135,255.011069 134.300408,264.67846 133.814424,274.45374 C133.325922,284.229021 121.972021,285.355586 114.246634,285.295369 C112.239746,285.280315 110.751577,284.806103 108.616268,285.014355 C106.166202,285.255224 103.837003,285.202534 101.38442,285.184971 C96.3785304,285.144826 91.4456646,285.340532 86.4448114,285.486057 C76.1333844,285.787144 65.9604503,286.319064 55.6465052,285.74449 C51.9223049,285.536238 45.3627768,286.060631 42.424209,283.45874 C38.8435376,280.292312 38.5589976,274.059819 38.3902881,269.643881 C38.3197826,267.789689 37.8489067,258.127316 37.8967497,255.839058 C37.9370385,253.804214 37.5618486,251.854677 36.962552,250.002995 C37.0481658,244.954775 36.4513873,232.567568 35.8445365,228.09894 C35.5272618,225.757991 35.109265,223.457187 34.915375,221.096166 C34.7391112,218.945906 35.2880468,215.977693 34.6182447,213.945358 C33.7344081,211.265687 34.3538491,208.578488 34.5326309,205.959034 C34.7491835,202.83526 33.4549042,199.558434 34.2757895,196.437169 C34.6383891,195.062206 34.112116,193.704807 34.4797518,192.322318 C34.9808443,190.43049 34.5301128,177.83754 35.7438144,175.950731 C34.9531457,173.511929 36.249943,169.542603 37.0028409,167.181582 C37.9848816,164.092934 38.7906585,160.931525 39.953999,157.903095 C41.9256345,152.769567 48.0973824,148.714933 45.3829212,142.570256 C44.6552039,142.379568 45.9771817,143.91511 45.3829212,142.570256 L45.3829212,142.570256 Z" id="Fill-3" sketch:type="MSShapeGroup"></path>
            <path d="M10.5135343,32.5804302 C10.2344794,33.7548499 9.68642551,34.9292696 9.86994813,36.1538781 C10.126377,37.8602999 11.2677369,38.9795118 11.7881367,40.5454047 C12.7107778,43.3359062 14.5711441,46.287012 17.0600126,48.1741137 C19.4784889,50.0110265 21.9623293,50.9721435 25.0218777,50.9997474 C28.5616018,51.0323701 31.7619347,47.8980749 34.4292978,45.9131049 C35.5153495,45.1075734 36.3877104,44.2694192 37.131857,43.1351507 C37.6497427,42.3446759 39.5805013,42.2091659 40.6992351,42.0811843 C43.9674462,41.7072772 47.1602371,41.112539 48.7742306,37.7498844 C49.9507866,35.3006673 50.5139245,31.1575756 49.3926767,28.6155091 C48.6409882,26.9141063 47.5725345,25.0771934 47.1099569,23.2754128 C46.7328557,21.8124071 47.3462737,20.1110042 46.9867705,18.5476208 C46.3632964,15.8374215 44.176109,12.469748 41.6093062,11.2376111 C38.7634485,9.87247374 35.7214982,11.0494029 33.2477137,8.73820517 C30.9046578,6.54495133 29.6476535,4.23124419 26.6635253,2.54740743 C23.6969952,0.871099009 19.3301623,3.47339218 16.5169868,4.62271742 C15.4510471,5.05936063 14.2669491,7.16980282 13.5906808,8.06567424 C12.479489,9.53369884 12.8339642,11.0468934 11.9515472,12.447163 C10.707113,14.4246047 6.75760554,13.877546 5.22908833,16.1460831 C3.43408622,18.8111124 2.18965198,23.134884 3.62766488,26.1361787 C4.37432542,27.6920338 5.49808725,28.8714724 6.83805381,29.937986 C8.13025421,30.9693674 9.81212594,30.8614613 10.5135343,32.5804302 C10.3903479,33.1023945 10.118835,31.6142944 10.5135343,32.5804302 L10.5135343,32.5804302 Z M38.0271685,44.3343663 C35.1705668,49.7603841 28.3642506,53.9386945 22.2608285,52.816764 C18.5212317,52.1275063 15.9873109,49.9993603 13.2882976,47.5492252 C11.0495424,45.5141541 10.1590431,43.0715656 8.98338389,40.2139133 C8.17793228,38.2643705 8.25547576,36.3274054 8.25547576,34.2621478 C7.05230115,33.502455 5.7140508,32.9842539 4.63594632,32.0308646 C3.38774646,30.931574 3.24766792,29.8398301 2.29463356,28.612247 C1.2390417,27.2488248 -0.21177176,25.8552162 0.0258614795,23.9534686 C0.421083077,20.8014982 2.41720229,18.346332 3.30520018,15.4786175 C3.80548068,13.8560948 5.03116792,12.7266177 6.55202065,12.0675465 C8.71323242,11.1342815 9.65626117,10.8927897 10.7818923,8.81243891 C13.8210964,3.1927246 20.7699926,-1.90375758 27.32867,0.699825369 C29.1421868,1.41926955 30.4103979,2.85061128 31.741144,4.22158008 C33.5971847,6.13338978 34.127482,6.94590891 36.7389462,7.18488512 C39.4379595,7.43140795 43.3576573,9.1470056 45.1411573,11.2223253 C47.6075402,14.0900399 47.8876972,17.6671365 48.1078207,21.2643574 C48.3179385,24.7056148 50.9043887,27.5909381 51.7123417,31.0447733 C52.7504237,35.4972775 50.8718704,38.7171675 47.7976467,41.7584542 C45.1161433,44.4098324 41.5766587,43.8765382 38.0271685,44.3343663 C37.3692997,45.5820737 39.3078866,44.1683407 38.0271685,44.3343663 L38.0271685,44.3343663 Z" id="Fill-4" sketch:type="MSShapeGroup"></path>
            <path d="M93.3441686,98.2871825 C92.680924,101.358588 87.1162016,98.3237759 86.1313839,100.275423 C87.362406,102.048983 92.9246161,100.036346 94.6706577,99.8167862 C97.4542751,99.4679292 99.7806556,98.782413 102.388413,97.8334244 C107.392894,96.0086341 113.306825,92.5639763 116,87.8897807 C113.374657,87.1261986 110.606113,86.9285943 107.880279,86.6382867 C105.104198,86.3431001 101.795512,85.7576058 99.021944,86.1089024 C96.4342853,86.4358033 93.0627921,87.4482204 90.7163132,88.5679782 C89.6109056,89.094923 84.1014536,92.8518443 85.1264679,94.1350525 C86.573547,93.1519101 87.7467864,91.7028119 89.0104683,90.5123069 C89.5405615,90.0121973 90.073167,90.3952081 89.9626262,91.1417132 C89.8621346,91.8272294 89.0456404,92.7005916 88.6687969,93.269009 C89.5305123,93.8471845 92.1231956,92.0248337 92.9271284,91.6784163 C94.6706577,90.927032 96.8035919,89.6779776 98.7883011,90.0878236 C100.785572,90.5025487 95.7710407,92.4688335 95.5424224,92.5566576 C93.3115088,93.4178221 90.4273999,94.0521075 88.5683052,95.5353596 C92.3819615,94.9425466 96.2006423,94.1789646 100.084643,94.3058217 C99.1199233,98.3457319 90.8971981,94.9596236 88.5683052,98.062743 C90.1560725,98.0725012 91.7815242,97.918809 93.3441686,98.2871825 C93.1984558,98.9678195 91.83177,97.9285672 93.3441686,98.2871825 L93.3441686,98.2871825 Z M81.6700959,94.0347048 C83.1693581,94.1012781 84.4891133,91.509853 85.4397416,90.6074158 C86.9592299,89.1649956 88.3700028,88.1442059 90.3673335,87.4094346 C93.8462286,86.1322147 97.5830068,85.1064936 101.314729,85.0177293 C105.091959,84.9264993 108.955151,85.1804639 112.651477,85.939892 C114.188663,86.2579641 116.299766,86.502066 117.551258,87.5376497 C118.91905,88.6669291 116.813004,90.7898758 115.852262,91.6750533 C109.913364,97.1389903 103.183118,101.190095 95.0193444,102.410605 C91.3786402,102.955519 87.0325497,103.320439 83.4044869,102.593065 C79.955931,101.905141 81.045614,96.2710725 81.6700959,94.0347048 C82.2996343,94.0618272 81.2301774,95.6102715 81.6700959,94.0347048 L81.6700959,94.0347048 Z" id="Fill-6" sketch:type="MSShapeGroup"></path>
            <path d="M18.0115937,62.5683771 C17.7487316,66.4218687 22.0171104,71.0840865 24.5781377,73.4773076 C27.574765,76.2761593 30.6740336,79.5237401 34.0161366,81.8155535 C40.4024324,86.1938298 51.1372173,90.5163319 58.6250302,86.2419984 C62.4878505,84.0363815 57.1404856,78.3550166 55.6434237,76.5322137 C52.6593137,72.9043542 49.4298658,70.298177 45.3893008,67.9100263 C41.7342667,65.7525781 37.125419,64.6700511 33.1048815,63.4303423 C30.6214611,62.6672496 27.9277511,62.3072524 25.3416894,62.1627464 C23.2588206,62.0461276 19.9742969,61.7114823 18.0115937,62.5683771 C17.9364902,63.6432985 19.3609521,61.9802126 18.0115937,62.5683771 L18.0115937,62.5683771 Z M16,62.0816403 C24.6394901,59.6127003 34.8016778,61.6606001 42.746296,65.2979891 C46.985767,67.2387604 51.2553408,70.0390516 54.7447516,73.1258495 C57.6597015,75.7019182 63.2939334,79.9447082 61.7310988,84.4466 C60.3062352,88.5498737 54.661969,90.0172861 50.7962738,89.9998466 C44.9839339,89.9724416 39.5855069,87.2967185 34.7138781,84.4565654 C30.5245783,82.0100476 26.8068883,78.5520367 23.5708424,74.9594922 C20.5480243,71.6061185 16,66.8525992 16,62.0816403 C18.3429976,61.4139552 16,62.6197746 16,62.0816403 L16,62.0816403 Z" id="Fill-7" sketch:type="MSShapeGroup"></path>
            <path d="M72.8063858,104.238157 C71.9575395,104.492105 71.1112423,104.746052 70.2649451,105 C69.625124,103.571859 69.4033533,101.985314 69.0617756,100.464143 C68.4117581,97.5952882 67.5527155,95.2770728 66.5152367,92.6043364 C64.3000792,86.9018283 62.4137542,81.3300655 59.510343,75.9167057 C56.7037971,70.6818636 53.3058629,65.9322878 50.4050008,60.77539 C48.9775115,58.2409419 47.251779,55.9277552 45.5923227,53.5366242 C44.1903243,51.5176145 41.1620078,48.7719624 41.0116116,46.287801 C40.789841,42.6495606 43.8105102,47.7913724 44.4528804,48.6085307 C46.4258745,51.1128068 48.6614246,53.4083932 50.6242223,55.8724399 C52.5615292,58.3012859 53.8819568,61.348658 55.4980785,63.9962511 C57.0606694,66.5533281 58.7124784,69.1606919 60.0023169,71.8636003 C62.5666994,77.2367307 65.4726597,82.6023182 67.5425191,88.1791096 C68.7023541,91.3094547 69.974349,94.4071134 70.8333917,97.6380318 C71.3534056,99.5891545 73.6781738,101.957657 72.8063858,104.238157 C72.0187176,104.474504 73.1581599,103.317911 72.8063858,104.238157" id="Fill-8" sketch:type="MSShapeGroup"></path>
            <path d="M110,56.4373701 C109.304939,50.1068738 105.505272,42.3069778 97.6768252,43.0492259 C91.5319708,43.6329601 84.6843324,48.2072217 85.0112685,54.8824231 C85.3279074,61.3286597 90.0955113,68.4844353 97.2083026,68.9650096 C105.121701,69.5009379 109.559795,63.8145621 110,56.4373701 C109.899602,55.5315757 109.79663,59.8491956 110,56.4373701 L110,56.4373701 Z M83.2269943,56.6078484 C83.2269943,48.4760194 89.2586634,42.3657479 97.4977206,42.0110887 C105.817876,41.6538962 111.689883,49.9909209 110.934657,57.6540931 C110.133814,65.7757889 104.137625,72.2508528 95.439857,70.7942167 C91.9171595,70.2039625 87.8647902,67.7922799 85.5788383,65.0816702 C84.9934116,64.3875515 82.1929939,56.6078484 83.2269943,56.6078484 C83.2269943,55.7870657 83.2016511,56.6078484 83.2269943,56.6078484 L83.2269943,56.6078484 Z" id="Fill-9" sketch:type="MSShapeGroup"></path>
            <path d="M78.0363037,104.967597 C75.6511309,105.207519 75.8098066,104.10135 76.2933897,102.106203 C76.7744541,100.106006 77.2227759,98.08813 77.6333178,96.0727797 C78.2705392,92.9361066 78.8347195,89.7918569 79.9706359,86.8648005 C82.2424689,80.9955345 85.0104782,74.1312209 88.9471466,69.163559 C89.2015314,68.8402948 90.0075032,69.0221309 89.9999472,69.4817722 C89.9621673,71.2016389 88.9269973,72.873521 88.2620706,74.4191281 C86.8994746,77.5936837 85.5444345,80.7833924 84.1239092,83.9352185 C81.1115897,90.6151705 78.7717529,97.5779787 78.0363037,104.967597 C77.2781865,105.043362 78.2806139,102.525437 78.0363037,104.967597" id="Fill-10" sketch:type="MSShapeGroup"></path>
            <path d="M75.0764676,133.169113 C77.4543311,132.537418 77.271995,133.740407 77.4843042,135.695893 C77.7116,137.789799 77.9438913,139.883704 78.1861736,141.97761 C78.6207831,145.714929 79.0678814,149.457281 79.3900919,153.207184 C80.0694814,161.079463 81.3058705,168.893857 82.2100581,176.740969 C82.9968512,183.566295 82.2350357,190.625676 83.1542098,197.425835 C83.5363665,200.259654 84.5154867,203.184075 84.6828364,206.030477 C84.9276164,210.175504 84.9925581,214.325564 85.3772125,218.478141 C86.0790818,226.068548 87.2105652,233.588487 88.4794251,241.103393 C89.8881594,249.453847 90.8248178,258.113857 92.8080359,266.340993 C93.5598604,269.45165 91.9163371,272.14705 91.0995709,267.574182 C90.2828048,262.981181 89.4660387,258.388179 88.6617613,253.792661 C87.2929911,245.9833 87.0007537,237.572444 84.8451905,229.954353 C84.1183435,232.886324 85.4071855,237.423958 85.6919297,240.449047 C86.0965661,244.75011 86.5386689,249.041106 86.813422,253.352236 C87.0706909,257.401628 87.2929911,261.453536 87.5427667,265.502927 C87.6651567,267.501198 87.8225154,269.484368 88.0548066,271.475088 C88.1572146,272.230102 88.2196585,272.990149 88.2421383,273.752713 C87.5003049,274.311424 86.6485701,273.860932 86.5261801,273.025383 C85.392199,265.246223 84.3831057,257.502296 84.0284243,249.642601 C83.8660702,246.016017 82.9968512,233.231114 82.6971205,232.433316 C82.1126457,230.872954 83.0443086,226.574407 82.9518916,224.93351 C82.8295016,222.816955 82.3799055,220.7457 82.2450267,218.626627 C81.9902556,214.660287 81.700516,210.69898 81.2134536,206.755291 C80.1943692,198.460204 80.1344231,189.737276 79.9570824,181.376755 C79.7847373,173.182337 79.0803702,164.836916 77.9963441,156.705415 C77.4818065,152.842261 76.7749416,149.019373 76.0980498,145.183902 C75.7508617,143.203249 75.7858303,141.09676 75.5910053,139.093456 C75.4111669,137.238639 74.7842302,135.003797 75.0764676,133.169113 C75.7708437,132.985393 75.0414991,133.388067 75.0764676,133.169113" id="Fill-11" sketch:type="MSShapeGroup"></path>
            <path d="M55.0362747,279.494599 L55.5821063,281 C54.2048922,280.834381 51.6804209,279.46988 53.8410044,278.105378 C55.0943956,277.311891 56.057182,277.895265 57.3434241,277.655488 C59.4484138,277.264924 61.5862543,277.109193 63.7190409,276.96335 C70.3827355,276.515932 76.8392163,275.848513 83.5863018,276.234133 C90.1034306,276.607393 96.5700193,276.182222 103.056824,276.333009 C106.885226,276.421999 110.369957,275.584017 114.195833,276.276155 C117.405121,276.857057 120.814041,277.052339 124.076396,277.361329 C128.122121,277.744477 124.591904,281.679779 124.195165,279.899994 C123.922249,278.673921 118.461406,278.24875 117.379851,278.273469 C110.251188,278.446504 103.117472,278.317964 95.9913367,278.409425 C88.7363245,278.503358 81.5065822,277.319307 74.299583,278.021333 C71.168632,278.327851 68.0578971,278.612122 64.9774861,278.958192 C61.6140513,279.336396 58.2986295,278.4292 55.0362747,279.494599 C55.2257995,280.018647 55.8373331,279.232575 55.0362747,279.494599" id="Fill-12" sketch:type="MSShapeGroup"></path>
            <path d="M48.1016939,269 C48.7976939,269.366 47.6696939,269.234 48.1016939,269 C48.1916939,269.048 48.0476939,269.03 48.1016939,269" id="Fill-13" sketch:type="MSShapeGroup"></path>
            <path d="M13,40.4295558 C14.7864976,38.2908134 14.1181314,38.8134479 15.8217114,40.2874804 C17.1257793,41.4164725 18.9122769,42.4921864 20.6133443,42.806782 C22.3244623,43.1239146 23.512948,44.3442409 25.4100025,44.1336649 C26.9628232,43.9611447 29.6011108,43.2025635 30.7292929,44.8947832 C31.7444054,46.4195568 29.6589019,47.3506582 28.5256945,47.7312174 C26.4628049,48.423835 23.8672324,47.6271979 21.8596211,47.0360627 C18.6660368,46.092276 14.1935111,43.8292175 13,40.4295558 C13.487455,39.8460318 13.356797,41.4519914 13,40.4295558" id="Fill-14" sketch:type="MSShapeGroup"></path>
            <path d="M24.7766426,32 C22.4177823,31.0213285 18.7915921,29.6763095 19.0093734,26.4053487 C19.2087877,23.4457835 21.3314996,22.3859922 23.9212606,23.3411127 C27.9803895,24.8379044 30.2106802,30.6209629 24.7766426,32 C23.8871503,31.6310356 24.9603136,31.9555149 24.7766426,32" id="Fill-15" sketch:type="MSShapeGroup"></path>
            <path d="M48,31.7124605 C47.1638735,35.8214508 44.4851719,38.2030298 41.2077625,40.6740457 C39.6567994,41.8443924 38.4851901,42.2762453 36.5445508,41.8239497 C34.4516539,41.3358793 34.5316536,40.0709849 36.5058412,39.5573611 C40.4155068,38.5428903 42.9935635,35.7345692 44.8025903,32.2720804 C45.2593631,31.4007087 45.594846,28.8377005 46.1651668,28.3010786 C47.6980654,26.8496442 47.8993551,31.0838463 48,31.7124605 C47.886452,32.2669698 47.8348392,30.6801022 48,31.7124605" id="Fill-16" sketch:type="MSShapeGroup"></path>
            <path d="M15.9828296,17.9861704 C14.5959335,16.4124624 14.6372563,16.1683559 16.3599,14.9166608 C17.9353312,13.7688408 19.4978491,12.5431144 21.2359889,11.6471916 C24.9008036,9.76185827 28.9659327,9.06070125 32.4112201,11.91467 C34.2810762,13.4624092 31.1715365,13.5584937 30.3579941,13.4000841 C27.9845165,12.935243 25.5671335,13.3351622 23.2478921,13.9012816 C22.0211218,14.2025194 20.6445565,14.9919703 19.5262586,15.5944459 C18.1961813,16.316378 17.6822292,18.1783394 15.9828296,17.9861704 C15.5825151,17.5343137 16.8247813,18.0822549 15.9828296,17.9861704" id="Fill-17" sketch:type="MSShapeGroup"></path>
            <path d="M29.7844548,35.0247204 C31.5013615,38.3751272 22.4280376,36.5401428 21.4258946,36.1282076 C18.8173754,35.0571759 14.2831697,32.4232868 15.0961828,28.9031127 C15.8502462,25.6475758 19.7482877,32.2160709 20.121635,32.5381293 C23.2803504,35.269385 26.1811613,34.0959936 29.7844548,35.0247204 C30.1307836,35.7012929 28.3131713,34.6452406 29.7844548,35.0247204" id="Fill-18" sketch:type="MSShapeGroup"></path>
            <path d="M36,17.0394336 C41.8950519,16.3011247 44.0460584,26.1265094 42.5311891,30.0581961 C42.1268646,31.105624 41.6928896,31.1694915 40.6173863,30.7811768 C40.4880024,29.4195205 40.843808,27.7257529 40.6173863,26.4458471 C39.954294,22.7006537 38.5283762,19.9569035 36,17.0394336 C37.4016584,16.8657139 36.5822273,17.713875 36,17.0394336" id="Fill-19" sketch:type="MSShapeGroup"></path>
            <path d="M21,20.2593624 C23.3586151,18.7737415 26.402662,18.4321282 28.8577066,20.1666766 C30.8931524,21.6019823 32.9364167,23.2014743 32.9989656,25.9714554 C33.0719394,29.2260508 29.2616684,23.7681817 28.5527807,23.1908816 C27.4034445,22.2560792 26.045612,21.4775185 24.5913498,21.1782758 C23.4368012,20.9399409 21.484754,21.7555759 21,20.2593624 C21.7818614,19.7668036 21.2788639,21.1200162 21,20.2593624" id="Fill-20" sketch:type="MSShapeGroup"></path>
            <path d="M9.64898975,27.9003426 C7.3630595,28.7471977 6.94684767,23.9621025 7.0050742,22.421263 C7.08055303,20.4824744 7.93022899,17.478444 9.32766559,16.197242 C10.6927541,14.9427318 9.55841515,20.0748192 9.54763246,20.2786468 C9.42902288,22.8604629 9.64898975,25.320953 9.64898975,27.9003426 C9.04084604,28.1260089 9.64898975,26.9078964 9.64898975,27.9003426" id="Fill-21" sketch:type="MSShapeGroup"></path>
            <path d="M25.960506,6.0622648 C24.3445089,6.05277122 20.7473617,6.99500865 19.4991075,8.02031486 C18.0281359,9.23311921 16.0599343,9.65558335 17.5050086,7.29405629 C18.929365,4.97050355 20.3640803,4.08285418 23.2671776,4.04962667 C24.6449186,4.03301291 26.4007616,3.7600726 27.5324775,4.69518984 C29.0267568,5.92935473 26.5095306,6.0622648 25.960506,6.0622648 C25.2483278,6.05751801 26.3748642,6.0622648 25.960506,6.0622648" id="Fill-22" sketch:type="MSShapeGroup"></path>
            <path d="M49.2207925,80.5291669 C47.4128696,78.4002355 44.0407886,77.0086175 41.6615417,75.485162 C40.323374,74.6257768 36.8751165,73.2927533 36.1641356,71.854748 C35.3947526,70.3019953 38.0431566,71.3127494 38.3199313,71.4470283 C40.0465993,72.286882 41.653924,73.2585732 43.2587096,74.2961831 C45.830937,75.9636833 48.8779981,79.0008285 51.7727062,79.9554297 C51.1353626,78.2366594 49.436626,77.1697522 48.0705269,75.9954219 C47.9029386,75.8538187 43.8554257,72.1892246 45.3357896,72.0891258 C48.6266156,71.8645137 53.4562075,78.3294339 55.1727186,80.7220403 C55.7719739,81.5570111 58.8850547,83.9642661 57.7551029,84.794354 C57.1202985,85.2606681 55.4951992,84.7162281 54.6597966,84.9579302 C53.0854817,85.4144785 51.8311082,85.7489551 50.1856952,85.8856755 C48.0730661,86.0590174 46.0112214,86.2079449 44.1779063,84.9579302 C43.5710333,83.5467807 48.2355761,83.3758802 49.1039885,83.3417001 C46.8390064,81.0272197 34.757409,80.5194012 35.0037131,76.0906379 C35.0646544,74.9871092 40.2192661,77.9534529 41.0419726,78.2244522 C43.8579649,79.1546389 46.2778393,80.1898074 49.2207925,80.5291669 C48.9389393,80.1995732 48.5352037,80.451041 49.2207925,80.5291669" id="Fill-23" sketch:type="MSShapeGroup"></path>
            <path d="M90.7294685,51 C89.5260731,56.3638811 90.3060516,61.8392985 94.9636375,65.274109 C96.8900606,66.6936616 99.7673147,67.7684658 101.884399,66.0472582 C102.954084,65.1777822 104.085672,64.3539347 104.949839,63.2563163 C105.026598,63.1599895 107.418532,60.865891 106.935689,62.6073779 C105.321257,68.4503581 97.2689074,71.3046729 92.8391246,66.7494298 C90.6130907,64.4578662 84.4797359,51.4816339 90.7294685,51 C90.536331,51.8618713 90.2713859,51.0354888 90.7294685,51" id="Fill-24" sketch:type="MSShapeGroup"></path>
            <path d="M102,56.8102762 C99.9392826,61.0727587 93.0069044,58.545173 94.1202208,54.0762117 C95.3104834,49.308212 101.293056,53.8436263 102,56.8102762 C101.855726,57.1069412 101.733093,55.6924425 102,56.8102762" id="Fill-25" sketch:type="MSShapeGroup"></path>
            <path d="M97.2516911,48 C100.604884,48.7701498 102.894869,49.7273008 105.118404,52.4068315 C106.120273,53.6174184 106.968794,55.2881267 106.999464,56.8653344 C107.030133,58.5729509 105.736905,58.1915668 105.366316,56.7915181 C104.637916,54.0652371 100.834905,49.7125375 97.4868236,50.5835696 C96.725199,50.7828735 93.2263263,51.2946663 93.0116402,50.1505141 C92.7688404,48.8611899 96.3955024,48.0049211 97.2516911,48 C99.2145357,48.4527398 95.3987454,48.0098422 97.2516911,48" id="Fill-26" sketch:type="MSShapeGroup"></path>
            <path d="M98.1410262,63 C95.9013093,62.9534549 93.44211,61.6967376 92.5093103,59.6340555 C91.9556164,58.4091848 91.5091695,57.1451183 91.0577343,55.8810518 C90.7509579,55.0285418 91.7436165,54.6782288 92.2274751,55.3592569 C93.6865335,57.4219391 94.4397568,59.3890813 96.7168855,60.8148308 C97.5648852,61.3464246 98.9241789,61.172493 99.6200375,61.6967376 C100.931943,62.6839834 98.4502967,63 98.1410262,63 C96.2629562,62.9608041 98.4877085,63 98.1410262,63" id="Fill-27" sketch:type="MSShapeGroup"></path>
        </g>
    </g>
</svg>