<?xml version="1.0" encoding="UTF-8" standalone="no"?>
<svg width="342px" height="307px" viewBox="0 0 342 307" version="1.1" xmlns="http://www.w3.org/2000/svg" xmlns:xlink="http://www.w3.org/1999/xlink" xmlns:sketch="http://www.bohemiancoding.com/sketch/ns">
    <title>Slice 1</title>
    <description>Created with Sketch (http://www.bohemiancoding.com/sketch)</description>
    <defs></defs>
    <g id="Page-1" stroke="none" stroke-width="1" fill="none" fill-rule="evenodd" sketch:type="MSPage">
        <g id="lights-2" sketch:type="MSLayerGroup" transform="translate(0.000000, 1.000000)">
            <path d="M0.056,64.971 C0.056,64.971 244.887,102.137 341.355,-0.057 C341.355,-0.057 301.68,208.886 25.92,304.646" id="Stroke-1" stroke="#1A1918" stroke-width="0.75" sketch:type="MSShapeGroup"></path>
            <path d="M307.98,26.017 C307.802,26.112 307.62,26.239 307.456,26.354 C307.092,26.609 306.841,26.755 306.849,27.077 C306.858,27.399 306.614,27.555 306.512,27.836 C306.421,28.094 306.421,28.288 306.154,28.565 C306.203,28.83 305.852,29.763 305.865,29.859 C305.639,30.66 305.64,31.242 305.6,31.495 C305.58,31.659 305.534,31.825 305.545,31.997 C305.551,32.082 305.624,32.225 305.552,32.276 C305.297,32.455 305.726,33.53 305.95,33.851 C306.007,33.932 306.106,33.997 306.162,34.077 C306.183,34.107 306.186,34.15 306.207,34.18 C306.236,34.22 306.308,34.169 306.329,34.199 C306.357,34.239 306.367,34.292 306.395,34.332 C306.424,34.372 307.258,34.327 307.413,34.278 L307.515,34.191 C307.752,34.219 308.189,34.031 308.536,33.789 C308.863,33.559 308.75,33.475 308.987,33.31 C309.388,33.029 309.352,32.861 309.421,32.573 C309.465,32.557 309.483,32.544 309.519,32.519 C309.665,32.417 309.542,32.279 309.633,32.215 C309.688,32.177 309.749,32.149 309.793,32.133 C309.961,31.791 310.025,31.417 310.19,31.033 C310.328,30.726 310.242,30.487 310.268,30.215 C310.29,29.976 310.509,29.672 310.397,29.512 C310.327,29.411 310.188,28.746 310.316,28.656 C310.254,27.832 310.166,27.4 309.878,26.989 C309.738,26.788 309.5,26.641 309.359,26.44 C309.331,26.4 309.321,26.347 309.293,26.307 C309.053,26.041 308.358,25.976 307.98,26.017 M310.006,30.189 C310.02,30.209 310.078,30.214 310.099,30.244" id="Fill-3" fill="#F6BD28" sketch:type="MSShapeGroup"></path>
            <path d="M316.564,62.504 C316.48,62.687 316.412,62.899 316.351,63.09 C316.216,63.513 316.105,63.781 316.307,64.033 C316.509,64.284 316.409,64.555 316.498,64.841 C316.582,65.101 316.7,65.255 316.655,65.638 C316.855,65.818 317.142,66.773 317.21,66.842 C317.515,67.616 317.869,68.079 317.99,68.304 C318.073,68.447 318.138,68.607 318.251,68.736 C318.307,68.801 318.452,68.87 318.425,68.955 C318.331,69.251 319.324,69.847 319.697,69.966 C319.79,69.996 319.909,69.987 320.002,70.017 C320.037,70.028 320.066,70.06 320.101,70.071 C320.147,70.086 320.174,70.002 320.209,70.013 C320.256,70.028 320.296,70.064 320.343,70.079 C320.389,70.094 321.025,69.552 321.119,69.419 L321.148,69.288 C321.353,69.167 321.587,68.752 321.716,68.35 C321.837,67.968 321.696,67.97 321.784,67.695 C321.933,67.229 321.802,67.117 321.683,66.845 C321.708,66.807 321.715,66.786 321.729,66.743 C321.783,66.573 321.601,66.539 321.635,66.433 C321.655,66.369 321.687,66.309 321.712,66.271 C321.639,65.897 321.463,65.561 321.361,65.155 C321.286,64.827 321.073,64.689 320.928,64.457 C320.8,64.254 320.791,63.879 320.604,63.819 C320.488,63.782 319.974,63.337 320.021,63.188 C319.473,62.57 319.141,62.279 318.663,62.127 C318.43,62.052 318.151,62.079 317.918,62.004 C317.871,61.99 317.831,61.954 317.784,61.939 C317.432,61.873 316.84,62.242 316.564,62.504 M320.704,64.595 C320.727,64.602 320.776,64.571 320.811,64.582" id="Fill-4" fill="#F6BD28" sketch:type="MSShapeGroup"></path>
            <path d="M288.431,36.097 C288.253,36.192 288.071,36.319 287.907,36.434 C287.543,36.689 287.292,36.835 287.3,37.157 C287.309,37.479 287.065,37.635 286.963,37.916 C286.872,38.174 286.872,38.368 286.605,38.645 C286.654,38.91 286.303,39.843 286.316,39.939 C286.09,40.74 286.091,41.322 286.051,41.575 C286.031,41.739 285.985,41.905 285.996,42.077 C286.002,42.162 286.075,42.305 286.003,42.356 C285.748,42.535 286.177,43.61 286.401,43.931 C286.458,44.012 286.557,44.077 286.613,44.157 C286.634,44.187 286.637,44.23 286.658,44.26 C286.687,44.3 286.759,44.249 286.78,44.279 C286.808,44.319 286.818,44.372 286.846,44.412 C286.875,44.452 287.709,44.407 287.864,44.358 L287.966,44.271 C288.203,44.299 288.64,44.111 288.987,43.869 C289.314,43.639 289.201,43.555 289.438,43.39 C289.839,43.109 289.803,42.941 289.872,42.653 C289.916,42.637 289.934,42.624 289.97,42.599 C290.116,42.497 289.993,42.359 290.084,42.295 C290.139,42.257 290.2,42.229 290.244,42.213 C290.412,41.871 290.476,41.497 290.641,41.113 C290.779,40.806 290.693,40.567 290.719,40.295 C290.741,40.056 290.96,39.752 290.848,39.592 C290.778,39.491 290.639,38.826 290.767,38.736 C290.705,37.912 290.617,37.48 290.329,37.069 C290.189,36.868 289.951,36.721 289.81,36.52 C289.782,36.48 289.772,36.427 289.744,36.387 C289.504,36.121 288.809,36.056 288.431,36.097 M290.457,40.269 C290.471,40.289 290.529,40.294 290.55,40.324" id="Fill-5" fill="#F6BD28" sketch:type="MSShapeGroup"></path>
            <path d="M306.056,83.532 C305.972,83.715 305.904,83.927 305.843,84.118 C305.708,84.541 305.597,84.809 305.799,85.061 C306.001,85.312 305.901,85.583 305.99,85.869 C306.074,86.129 306.192,86.283 306.147,86.666 C306.347,86.846 306.634,87.801 306.702,87.87 C307.007,88.644 307.361,89.107 307.482,89.332 C307.565,89.475 307.63,89.635 307.743,89.764 C307.799,89.829 307.944,89.898 307.917,89.983 C307.823,90.279 308.816,90.875 309.189,90.994 C309.282,91.024 309.401,91.015 309.494,91.045 C309.529,91.056 309.558,91.088 309.593,91.099 C309.639,91.114 309.666,91.03 309.701,91.041 C309.748,91.056 309.788,91.092 309.835,91.107 C309.881,91.122 310.517,90.58 310.611,90.447 L310.64,90.316 C310.845,90.195 311.079,89.78 311.208,89.378 C311.329,88.996 311.188,88.998 311.276,88.723 C311.425,88.257 311.294,88.145 311.175,87.873 C311.2,87.835 311.207,87.814 311.221,87.771 C311.275,87.601 311.093,87.567 311.127,87.461 C311.147,87.397 311.179,87.337 311.204,87.299 C311.131,86.925 310.955,86.589 310.853,86.183 C310.778,85.855 310.565,85.717 310.42,85.485 C310.292,85.282 310.283,84.907 310.096,84.847 C309.98,84.81 309.466,84.365 309.513,84.216 C308.965,83.598 308.633,83.307 308.155,83.155 C307.922,83.08 307.643,83.107 307.41,83.032 C307.363,83.018 307.323,82.982 307.276,82.967 C306.924,82.901 306.332,83.27 306.056,83.532 M310.196,85.623 C310.219,85.63 310.268,85.599 310.303,85.61" id="Fill-6" fill="#F6BD28" sketch:type="MSShapeGroup"></path>
            <path d="M264.587,46.537 C264.409,46.632 264.227,46.759 264.063,46.874 C263.699,47.129 263.448,47.275 263.456,47.597 C263.465,47.919 263.221,48.075 263.119,48.356 C263.028,48.614 263.028,48.808 262.761,49.085 C262.81,49.35 262.459,50.283 262.472,50.379 C262.246,51.18 262.247,51.762 262.207,52.015 C262.187,52.179 262.141,52.345 262.152,52.517 C262.158,52.602 262.231,52.745 262.159,52.796 C261.904,52.975 262.333,54.05 262.557,54.371 C262.614,54.452 262.713,54.517 262.769,54.597 C262.79,54.627 262.793,54.67 262.814,54.7 C262.843,54.74 262.915,54.689 262.936,54.719 C262.964,54.759 262.974,54.812 263.002,54.852 C263.031,54.892 263.865,54.847 264.02,54.798 L264.122,54.711 C264.359,54.739 264.796,54.551 265.143,54.309 C265.47,54.079 265.357,53.995 265.594,53.83 C265.995,53.549 265.959,53.381 266.028,53.093 C266.072,53.077 266.09,53.064 266.126,53.039 C266.272,52.937 266.149,52.799 266.24,52.735 C266.295,52.697 266.356,52.669 266.4,52.653 C266.568,52.311 266.632,51.937 266.797,51.553 C266.935,51.246 266.849,51.007 266.875,50.735 C266.897,50.496 267.116,50.192 267.004,50.032 C266.934,49.931 266.795,49.266 266.923,49.176 C266.861,48.352 266.773,47.92 266.485,47.509 C266.345,47.308 266.107,47.161 265.966,46.96 C265.938,46.92 265.928,46.867 265.9,46.827 C265.66,46.561 264.965,46.496 264.587,46.537 M266.613,50.709 C266.627,50.729 266.685,50.734 266.706,50.764" id="Fill-7" fill="#F6BD28" sketch:type="MSShapeGroup"></path>
            <path d="M292.688,105.779 C292.604,105.962 292.536,106.174 292.475,106.365 C292.34,106.788 292.229,107.056 292.431,107.308 C292.633,107.559 292.533,107.83 292.622,108.116 C292.706,108.376 292.824,108.53 292.779,108.913 C292.979,109.093 293.266,110.048 293.334,110.117 C293.639,110.891 293.993,111.354 294.114,111.579 C294.197,111.722 294.262,111.882 294.375,112.011 C294.431,112.076 294.576,112.145 294.549,112.23 C294.455,112.526 295.448,113.122 295.821,113.241 C295.914,113.271 296.033,113.262 296.126,113.292 C296.161,113.303 296.19,113.335 296.225,113.346 C296.271,113.361 296.298,113.277 296.333,113.288 C296.38,113.303 296.42,113.339 296.467,113.354 C296.513,113.369 297.149,112.827 297.243,112.694 L297.272,112.563 C297.477,112.442 297.711,112.027 297.84,111.625 C297.961,111.243 297.82,111.245 297.908,110.97 C298.057,110.504 297.926,110.392 297.807,110.12 C297.832,110.082 297.839,110.061 297.853,110.018 C297.907,109.848 297.725,109.814 297.759,109.708 C297.779,109.644 297.811,109.584 297.836,109.546 C297.763,109.172 297.587,108.836 297.485,108.43 C297.41,108.102 297.197,107.964 297.052,107.732 C296.924,107.529 296.915,107.154 296.728,107.094 C296.612,107.057 296.098,106.612 296.145,106.463 C295.597,105.845 295.265,105.554 294.787,105.402 C294.554,105.327 294.275,105.354 294.042,105.279 C293.995,105.265 293.955,105.229 293.908,105.214 C293.556,105.148 292.964,105.517 292.688,105.779 M296.828,107.87 C296.851,107.877 296.9,107.846 296.935,107.857" id="Fill-8" fill="#F6BD28" sketch:type="MSShapeGroup"></path>
            <path d="M233.627,56.257 C233.449,56.352 233.267,56.479 233.103,56.594 C232.739,56.849 232.488,56.995 232.496,57.317 C232.505,57.639 232.261,57.795 232.159,58.076 C232.068,58.334 232.068,58.528 231.801,58.805 C231.85,59.07 231.499,60.003 231.512,60.099 C231.286,60.9 231.287,61.482 231.247,61.735 C231.227,61.899 231.181,62.065 231.192,62.237 C231.198,62.322 231.271,62.466 231.199,62.516 C230.944,62.695 231.373,63.77 231.597,64.091 C231.654,64.172 231.753,64.237 231.809,64.317 C231.831,64.347 231.833,64.39 231.854,64.42 C231.883,64.46 231.955,64.409 231.976,64.439 C232.004,64.479 232.014,64.532 232.042,64.572 C232.071,64.612 232.905,64.567 233.06,64.518 L233.162,64.431 C233.399,64.459 233.837,64.271 234.183,64.029 C234.51,63.799 234.397,63.715 234.634,63.55 C235.035,63.269 234.999,63.101 235.068,62.813 C235.112,62.797 235.13,62.784 235.166,62.759 C235.312,62.657 235.189,62.519 235.28,62.455 C235.335,62.417 235.396,62.389 235.44,62.373 C235.608,62.031 235.672,61.657 235.837,61.273 C235.975,60.966 235.889,60.727 235.915,60.455 C235.937,60.216 236.156,59.912 236.044,59.752 C235.974,59.651 235.835,58.986 235.963,58.896 C235.901,58.072 235.813,57.64 235.525,57.229 C235.385,57.028 235.147,56.881 235.007,56.68 C234.978,56.64 234.968,56.587 234.94,56.547 C234.7,56.281 234.005,56.216 233.627,56.257 M235.653,60.429 C235.667,60.449 235.725,60.454 235.746,60.484" id="Fill-9" fill="#F6BD28" sketch:type="MSShapeGroup"></path>
            <path d="M274.688,132.419 C274.604,132.602 274.536,132.814 274.475,133.005 C274.34,133.428 274.229,133.696 274.431,133.948 C274.633,134.199 274.533,134.47 274.622,134.756 C274.706,135.016 274.824,135.17 274.779,135.553 C274.979,135.733 275.266,136.688 275.334,136.757 C275.639,137.531 275.993,137.994 276.114,138.219 C276.197,138.362 276.262,138.522 276.375,138.651 C276.431,138.716 276.576,138.785 276.549,138.87 C276.455,139.166 277.448,139.762 277.821,139.881 C277.914,139.911 278.033,139.902 278.126,139.932 C278.161,139.943 278.19,139.975 278.225,139.986 C278.271,140.001 278.298,139.917 278.333,139.928 C278.38,139.943 278.42,139.979 278.467,139.994 C278.513,140.009 279.149,139.467 279.243,139.334 L279.272,139.203 C279.477,139.082 279.711,138.667 279.84,138.265 C279.961,137.883 279.82,137.885 279.908,137.61 C280.057,137.144 279.926,137.032 279.807,136.76 C279.832,136.722 279.839,136.701 279.853,136.658 C279.907,136.488 279.725,136.454 279.759,136.348 C279.779,136.284 279.811,136.224 279.836,136.186 C279.763,135.812 279.587,135.476 279.485,135.07 C279.41,134.742 279.197,134.604 279.052,134.372 C278.924,134.169 278.915,133.794 278.728,133.734 C278.612,133.697 278.098,133.252 278.145,133.103 C277.597,132.485 277.265,132.194 276.787,132.042 C276.554,131.967 276.275,131.994 276.042,131.919 C275.995,131.905 275.955,131.869 275.908,131.854 C275.556,131.788 274.964,132.157 274.688,132.419 M278.828,134.51 C278.851,134.517 278.9,134.486 278.935,134.497" id="Fill-10" fill="#F6BD28" sketch:type="MSShapeGroup"></path>
            <path d="M195.107,63.817 C194.929,63.912 194.747,64.039 194.583,64.154 C194.219,64.409 193.968,64.555 193.976,64.877 C193.985,65.199 193.741,65.355 193.639,65.636 C193.548,65.894 193.548,66.088 193.281,66.365 C193.33,66.63 192.979,67.563 192.992,67.659 C192.766,68.46 192.767,69.042 192.727,69.295 C192.707,69.459 192.661,69.625 192.672,69.797 C192.678,69.882 192.751,70.026 192.679,70.076 C192.424,70.255 192.853,71.33 193.077,71.651 C193.134,71.732 193.233,71.797 193.289,71.877 C193.311,71.907 193.313,71.95 193.334,71.98 C193.363,72.02 193.435,71.969 193.456,71.999 C193.484,72.039 193.494,72.092 193.522,72.132 C193.551,72.172 194.385,72.127 194.54,72.078 L194.642,71.991 C194.879,72.019 195.317,71.831 195.663,71.589 C195.99,71.359 195.877,71.275 196.114,71.11 C196.515,70.829 196.479,70.661 196.548,70.373 C196.592,70.357 196.61,70.344 196.646,70.319 C196.792,70.217 196.669,70.079 196.76,70.015 C196.815,69.977 196.876,69.949 196.92,69.933 C197.088,69.591 197.152,69.217 197.317,68.833 C197.455,68.526 197.369,68.287 197.395,68.015 C197.417,67.776 197.636,67.472 197.524,67.312 C197.454,67.211 197.315,66.546 197.443,66.456 C197.381,65.632 197.293,65.2 197.005,64.789 C196.865,64.588 196.627,64.441 196.487,64.24 C196.458,64.2 196.448,64.147 196.42,64.107 C196.18,63.841 195.485,63.776 195.107,63.817 M197.133,67.989 C197.147,68.009 197.205,68.014 197.226,68.044" id="Fill-11" fill="#F6BD28" sketch:type="MSShapeGroup"></path>
            <path d="M249.488,162.659 C249.404,162.842 249.336,163.054 249.275,163.245 C249.14,163.668 249.029,163.936 249.231,164.188 C249.433,164.439 249.333,164.71 249.422,164.996 C249.506,165.256 249.624,165.41 249.579,165.793 C249.779,165.973 250.066,166.928 250.134,166.997 C250.439,167.771 250.793,168.234 250.914,168.459 C250.997,168.602 251.062,168.762 251.175,168.891 C251.231,168.956 251.376,169.025 251.349,169.11 C251.255,169.406 252.248,170.002 252.621,170.121 C252.714,170.151 252.833,170.142 252.926,170.172 C252.961,170.183 252.99,170.215 253.025,170.226 C253.071,170.241 253.098,170.157 253.133,170.168 C253.18,170.183 253.22,170.219 253.267,170.234 C253.313,170.249 253.949,169.707 254.043,169.574 L254.072,169.443 C254.277,169.322 254.511,168.907 254.64,168.505 C254.761,168.123 254.62,168.125 254.708,167.85 C254.857,167.384 254.726,167.272 254.607,167 C254.632,166.962 254.639,166.941 254.653,166.898 C254.707,166.728 254.525,166.694 254.559,166.588 C254.579,166.524 254.611,166.464 254.636,166.426 C254.563,166.052 254.387,165.716 254.285,165.31 C254.21,164.982 253.997,164.844 253.852,164.612 C253.724,164.409 253.715,164.034 253.528,163.974 C253.412,163.937 252.898,163.492 252.945,163.343 C252.397,162.725 252.065,162.434 251.587,162.282 C251.354,162.207 251.075,162.234 250.842,162.159 C250.795,162.145 250.755,162.109 250.708,162.094 C250.356,162.028 249.764,162.397 249.488,162.659 M253.628,164.75 C253.651,164.757 253.7,164.726 253.735,164.737" id="Fill-12" fill="#F6BD28" sketch:type="MSShapeGroup"></path>
            <path d="M155.147,68.097 C154.969,68.192 154.787,68.319 154.623,68.434 C154.259,68.689 154.008,68.835 154.016,69.157 C154.025,69.479 153.781,69.635 153.679,69.916 C153.588,70.174 153.588,70.368 153.321,70.645 C153.37,70.91 153.019,71.843 153.032,71.939 C152.806,72.74 152.807,73.322 152.767,73.575 C152.747,73.739 152.701,73.905 152.712,74.077 C152.718,74.162 152.791,74.306 152.719,74.356 C152.464,74.535 152.893,75.61 153.117,75.931 C153.174,76.012 153.273,76.077 153.329,76.157 C153.351,76.187 153.353,76.23 153.374,76.26 C153.403,76.3 153.475,76.249 153.496,76.279 C153.524,76.319 153.534,76.372 153.562,76.412 C153.591,76.452 154.425,76.407 154.58,76.358 L154.682,76.271 C154.919,76.299 155.357,76.111 155.703,75.869 C156.03,75.639 155.917,75.555 156.154,75.39 C156.555,75.109 156.519,74.941 156.588,74.653 C156.632,74.637 156.65,74.624 156.686,74.599 C156.832,74.497 156.709,74.359 156.8,74.295 C156.855,74.257 156.916,74.229 156.96,74.213 C157.128,73.871 157.192,73.497 157.357,73.113 C157.495,72.806 157.409,72.567 157.435,72.295 C157.457,72.056 157.676,71.752 157.564,71.592 C157.494,71.491 157.355,70.826 157.483,70.736 C157.421,69.912 157.333,69.48 157.045,69.069 C156.905,68.868 156.667,68.721 156.527,68.52 C156.498,68.48 156.488,68.427 156.46,68.387 C156.22,68.121 155.525,68.056 155.147,68.097 M157.173,72.269 C157.187,72.289 157.245,72.294 157.266,72.324" id="Fill-13" fill="#F6BD28" sketch:type="MSShapeGroup"></path>
            <path d="M222.128,189.299 C222.044,189.482 221.976,189.694 221.915,189.885 C221.78,190.308 221.669,190.576 221.871,190.828 C222.073,191.079 221.973,191.35 222.062,191.636 C222.146,191.896 222.264,192.05 222.219,192.433 C222.419,192.613 222.706,193.568 222.774,193.637 C223.079,194.411 223.433,194.874 223.554,195.099 C223.637,195.241 223.702,195.402 223.815,195.531 C223.871,195.596 224.016,195.665 223.989,195.75 C223.895,196.046 224.888,196.642 225.261,196.761 C225.354,196.791 225.473,196.782 225.566,196.812 C225.601,196.823 225.63,196.855 225.665,196.866 C225.711,196.881 225.738,196.797 225.773,196.808 C225.82,196.823 225.86,196.859 225.907,196.874 C225.953,196.889 226.589,196.347 226.683,196.214 L226.712,196.083 C226.917,195.962 227.151,195.547 227.28,195.145 C227.401,194.763 227.26,194.765 227.348,194.49 C227.497,194.024 227.366,193.912 227.247,193.64 C227.272,193.602 227.279,193.581 227.293,193.538 C227.347,193.368 227.165,193.334 227.199,193.228 C227.219,193.164 227.251,193.104 227.276,193.066 C227.203,192.692 227.027,192.356 226.925,191.95 C226.85,191.622 226.637,191.484 226.492,191.252 C226.364,191.049 226.355,190.674 226.168,190.614 C226.052,190.577 225.538,190.132 225.585,189.983 C225.037,189.365 224.705,189.074 224.227,188.922 C223.994,188.847 223.715,188.874 223.482,188.799 C223.435,188.785 223.395,188.749 223.348,188.734 C222.997,188.668 222.404,189.037 222.128,189.299 M226.268,191.39 C226.291,191.397 226.34,191.366 226.375,191.377" id="Fill-14" fill="#F6BD28" sketch:type="MSShapeGroup"></path>
            <path d="M113.387,70.977 C113.209,71.072 113.027,71.199 112.863,71.314 C112.499,71.569 112.248,71.715 112.256,72.037 C112.265,72.359 112.021,72.515 111.919,72.796 C111.828,73.054 111.828,73.248 111.561,73.525 C111.61,73.79 111.259,74.723 111.272,74.819 C111.046,75.62 111.047,76.202 111.007,76.455 C110.987,76.619 110.941,76.785 110.952,76.957 C110.958,77.042 111.031,77.186 110.959,77.236 C110.704,77.415 111.133,78.49 111.357,78.811 C111.414,78.892 111.513,78.957 111.569,79.037 C111.591,79.067 111.593,79.11 111.614,79.14 C111.643,79.18 111.715,79.129 111.736,79.159 C111.764,79.199 111.774,79.252 111.803,79.292 C111.831,79.332 112.665,79.287 112.82,79.238 L112.922,79.151 C113.159,79.179 113.597,78.991 113.943,78.749 C114.27,78.519 114.157,78.435 114.394,78.27 C114.795,77.989 114.759,77.821 114.828,77.533 C114.872,77.517 114.89,77.504 114.926,77.479 C115.072,77.377 114.949,77.239 115.04,77.175 C115.095,77.137 115.156,77.109 115.2,77.093 C115.368,76.751 115.432,76.377 115.597,75.993 C115.735,75.686 115.649,75.447 115.675,75.175 C115.697,74.936 115.916,74.632 115.804,74.472 C115.734,74.371 115.595,73.706 115.723,73.616 C115.661,72.792 115.573,72.36 115.285,71.949 C115.145,71.748 114.907,71.601 114.767,71.4 C114.738,71.36 114.728,71.307 114.7,71.267 C114.46,71.001 113.765,70.936 113.387,70.977 M115.413,75.149 C115.427,75.169 115.485,75.174 115.506,75.204" id="Fill-15" fill="#F6BD28" sketch:type="MSShapeGroup"></path>
            <path d="M189.728,217.379 C189.644,217.562 189.576,217.774 189.515,217.965 C189.38,218.388 189.269,218.656 189.471,218.908 C189.673,219.159 189.573,219.43 189.662,219.716 C189.746,219.976 189.864,220.13 189.819,220.513 C190.019,220.693 190.306,221.648 190.374,221.717 C190.679,222.491 191.033,222.954 191.154,223.179 C191.237,223.321 191.302,223.482 191.415,223.611 C191.471,223.676 191.616,223.745 191.589,223.83 C191.495,224.126 192.488,224.722 192.861,224.841 C192.954,224.871 193.073,224.862 193.166,224.892 C193.201,224.903 193.23,224.935 193.265,224.946 C193.311,224.961 193.338,224.877 193.373,224.888 C193.42,224.903 193.46,224.939 193.507,224.954 C193.553,224.969 194.189,224.427 194.283,224.294 L194.312,224.163 C194.517,224.042 194.751,223.627 194.88,223.225 C195.001,222.843 194.86,222.845 194.948,222.57 C195.097,222.104 194.966,221.992 194.847,221.72 C194.872,221.682 194.879,221.661 194.893,221.618 C194.947,221.448 194.765,221.414 194.799,221.308 C194.819,221.244 194.851,221.184 194.876,221.146 C194.803,220.772 194.627,220.436 194.525,220.03 C194.45,219.702 194.237,219.564 194.092,219.332 C193.964,219.129 193.955,218.754 193.768,218.694 C193.652,218.657 193.138,218.212 193.185,218.063 C192.637,217.445 192.305,217.154 191.827,217.002 C191.594,216.927 191.315,216.954 191.082,216.879 C191.035,216.865 190.995,216.829 190.948,216.814 C190.597,216.748 190.004,217.117 189.728,217.379 M193.868,219.47 C193.891,219.477 193.94,219.446 193.975,219.457" id="Fill-16" fill="#F6BD28" sketch:type="MSShapeGroup"></path>
            <path d="M72.431,70.257 C72.253,70.352 72.071,70.479 71.907,70.594 C71.543,70.849 71.292,70.995 71.3,71.317 C71.309,71.639 71.065,71.795 70.963,72.076 C70.872,72.334 70.872,72.528 70.605,72.805 C70.654,73.07 70.303,74.003 70.316,74.099 C70.09,74.9 70.091,75.482 70.051,75.735 C70.031,75.899 69.985,76.065 69.996,76.237 C70.002,76.322 70.075,76.466 70.003,76.516 C69.748,76.695 70.177,77.77 70.401,78.091 C70.458,78.172 70.557,78.237 70.613,78.317 C70.635,78.347 70.637,78.39 70.658,78.42 C70.687,78.46 70.759,78.409 70.78,78.439 C70.808,78.479 70.818,78.532 70.846,78.572 C70.875,78.612 71.709,78.567 71.864,78.518 L71.966,78.431 C72.203,78.459 72.641,78.271 72.987,78.029 C73.314,77.799 73.201,77.715 73.438,77.55 C73.839,77.269 73.803,77.101 73.872,76.813 C73.916,76.797 73.934,76.784 73.97,76.759 C74.116,76.657 73.993,76.519 74.084,76.455 C74.139,76.417 74.2,76.389 74.244,76.373 C74.412,76.031 74.476,75.657 74.641,75.273 C74.779,74.966 74.693,74.727 74.719,74.455 C74.741,74.216 74.96,73.912 74.848,73.752 C74.778,73.651 74.639,72.986 74.767,72.896 C74.705,72.072 74.617,71.64 74.329,71.229 C74.189,71.028 73.951,70.881 73.811,70.68 C73.782,70.64 73.772,70.587 73.744,70.547 C73.504,70.281 72.809,70.216 72.431,70.257 M74.457,74.429 C74.471,74.449 74.529,74.454 74.55,74.484" id="Fill-17" fill="#F6BD28" sketch:type="MSShapeGroup"></path>
            <path d="M155.062,241.176 C154.978,241.359 154.91,241.571 154.849,241.762 C154.714,242.185 154.603,242.453 154.805,242.705 C155.007,242.956 154.907,243.227 154.996,243.513 C155.08,243.773 155.198,243.927 155.153,244.31 C155.353,244.49 155.64,245.445 155.708,245.514 C156.013,246.288 156.367,246.751 156.488,246.976 C156.571,247.119 156.636,247.279 156.749,247.408 C156.805,247.473 156.95,247.542 156.923,247.627 C156.829,247.923 157.822,248.519 158.195,248.638 C158.288,248.668 158.407,248.659 158.5,248.689 C158.535,248.7 158.564,248.732 158.599,248.743 C158.645,248.758 158.672,248.674 158.707,248.685 C158.754,248.7 158.794,248.736 158.841,248.751 C158.887,248.766 159.523,248.224 159.617,248.091 L159.646,247.96 C159.851,247.839 160.085,247.424 160.214,247.022 C160.335,246.64 160.194,246.642 160.282,246.367 C160.431,245.901 160.3,245.789 160.181,245.517 C160.206,245.479 160.213,245.458 160.227,245.415 C160.281,245.245 160.099,245.211 160.133,245.105 C160.153,245.041 160.185,244.981 160.21,244.943 C160.137,244.569 159.961,244.233 159.859,243.827 C159.784,243.499 159.571,243.361 159.426,243.129 C159.298,242.926 159.289,242.551 159.102,242.491 C158.986,242.454 158.472,242.009 158.519,241.86 C157.971,241.242 157.639,240.951 157.161,240.799 C156.928,240.724 156.649,240.751 156.416,240.676 C156.369,240.662 156.329,240.626 156.282,240.611 C155.93,240.545 155.338,240.914 155.062,241.176 M159.202,243.267 C159.225,243.274 159.274,243.243 159.309,243.254" id="Fill-18" fill="#F6BD28" sketch:type="MSShapeGroup"></path>
            <path d="M28.427,67.377 C28.249,67.472 28.067,67.599 27.903,67.714 C27.539,67.969 27.288,68.115 27.296,68.437 C27.305,68.759 27.061,68.915 26.959,69.196 C26.868,69.454 26.868,69.648 26.601,69.925 C26.65,70.19 26.299,71.123 26.312,71.219 C26.086,72.02 26.087,72.602 26.047,72.855 C26.027,73.019 25.981,73.185 25.992,73.357 C25.998,73.442 26.071,73.586 25.999,73.636 C25.744,73.815 26.173,74.89 26.397,75.211 C26.454,75.292 26.553,75.357 26.609,75.437 C26.631,75.467 26.633,75.51 26.654,75.54 C26.683,75.58 26.755,75.529 26.776,75.559 C26.804,75.599 26.814,75.652 26.842,75.692 C26.871,75.732 27.705,75.687 27.86,75.638 L27.962,75.551 C28.199,75.579 28.636,75.391 28.983,75.149 C29.31,74.919 29.197,74.835 29.434,74.67 C29.835,74.389 29.799,74.221 29.868,73.933 C29.912,73.917 29.93,73.904 29.966,73.879 C30.112,73.777 29.989,73.639 30.08,73.575 C30.135,73.537 30.196,73.509 30.24,73.493 C30.408,73.151 30.472,72.777 30.637,72.393 C30.775,72.086 30.689,71.847 30.715,71.575 C30.737,71.336 30.956,71.032 30.844,70.872 C30.774,70.771 30.635,70.106 30.763,70.016 C30.701,69.192 30.613,68.76 30.325,68.349 C30.185,68.148 29.947,68.001 29.807,67.8 C29.778,67.76 29.768,67.707 29.74,67.667 C29.5,67.401 28.805,67.336 28.427,67.377 M30.453,71.549 C30.467,71.569 30.525,71.574 30.546,71.604" id="Fill-19" fill="#F6BD28" sketch:type="MSShapeGroup"></path>
            <path d="M119.9,262.729 C119.816,262.912 119.748,263.124 119.687,263.315 C119.552,263.738 119.441,264.006 119.643,264.258 C119.845,264.509 119.745,264.78 119.834,265.066 C119.918,265.326 120.036,265.48 119.991,265.863 C120.191,266.043 120.478,266.998 120.546,267.067 C120.851,267.841 121.205,268.304 121.326,268.529 C121.409,268.671 121.474,268.832 121.587,268.961 C121.643,269.026 121.788,269.095 121.761,269.18 C121.667,269.476 122.66,270.072 123.033,270.191 C123.126,270.221 123.245,270.212 123.338,270.242 C123.373,270.253 123.402,270.285 123.437,270.296 C123.483,270.311 123.51,270.227 123.545,270.238 C123.592,270.253 123.632,270.289 123.679,270.304 C123.725,270.319 124.361,269.777 124.455,269.644 L124.484,269.513 C124.689,269.392 124.923,268.977 125.052,268.575 C125.173,268.193 125.032,268.195 125.12,267.92 C125.269,267.454 125.138,267.342 125.019,267.07 C125.044,267.032 125.051,267.011 125.065,266.968 C125.119,266.798 124.937,266.764 124.971,266.658 C124.991,266.594 125.023,266.534 125.048,266.496 C124.975,266.122 124.799,265.786 124.697,265.38 C124.622,265.052 124.409,264.914 124.264,264.682 C124.136,264.479 124.127,264.104 123.94,264.044 C123.824,264.007 123.31,263.562 123.357,263.413 C122.809,262.795 122.477,262.504 121.999,262.352 C121.766,262.277 121.487,262.304 121.254,262.229 C121.207,262.215 121.167,262.179 121.12,262.164 C120.768,262.098 120.176,262.467 119.9,262.729 M124.04,264.82 C124.063,264.827 124.112,264.796 124.147,264.807" id="Fill-20" fill="#F6BD28" sketch:type="MSShapeGroup"></path>
            <path d="M89.872,278.09 C89.788,278.273 89.72,278.485 89.659,278.676 C89.524,279.099 89.413,279.367 89.615,279.619 C89.817,279.87 89.717,280.141 89.806,280.427 C89.89,280.687 90.008,280.841 89.963,281.224 C90.163,281.404 90.45,282.359 90.518,282.428 C90.823,283.202 91.177,283.665 91.298,283.89 C91.381,284.032 91.446,284.193 91.559,284.322 C91.615,284.387 91.76,284.456 91.733,284.541 C91.639,284.837 92.632,285.433 93.005,285.552 C93.098,285.582 93.217,285.573 93.31,285.603 C93.345,285.614 93.374,285.646 93.409,285.657 C93.455,285.672 93.482,285.588 93.517,285.599 C93.564,285.614 93.604,285.65 93.651,285.665 C93.697,285.68 94.333,285.138 94.427,285.005 L94.456,284.874 C94.661,284.753 94.895,284.338 95.024,283.936 C95.145,283.554 95.004,283.556 95.092,283.281 C95.241,282.815 95.11,282.703 94.991,282.431 C95.016,282.393 95.023,282.372 95.037,282.329 C95.091,282.159 94.909,282.125 94.943,282.019 C94.963,281.955 94.995,281.895 95.02,281.857 C94.947,281.483 94.771,281.147 94.669,280.741 C94.594,280.413 94.381,280.275 94.236,280.043 C94.108,279.84 94.099,279.465 93.912,279.405 C93.796,279.368 93.282,278.923 93.329,278.774 C92.781,278.156 92.449,277.865 91.971,277.713 C91.738,277.638 91.459,277.665 91.226,277.59 C91.179,277.576 91.139,277.54 91.092,277.525 C90.74,277.459 90.148,277.828 89.872,278.09 M94.012,280.181 C94.035,280.188 94.084,280.157 94.119,280.168" id="Fill-21" fill="#F6BD28" sketch:type="MSShapeGroup"></path>
            <path d="M56.246,293.681 C56.162,293.864 56.094,294.076 56.033,294.267 C55.898,294.69 55.787,294.958 55.989,295.21 C56.191,295.461 56.091,295.732 56.18,296.018 C56.264,296.278 56.382,296.432 56.337,296.815 C56.537,296.995 56.824,297.95 56.892,298.019 C57.197,298.793 57.551,299.256 57.672,299.481 C57.755,299.624 57.82,299.784 57.933,299.913 C57.989,299.978 58.134,300.047 58.107,300.132 C58.013,300.428 59.006,301.024 59.379,301.143 C59.472,301.173 59.591,301.164 59.684,301.194 C59.719,301.205 59.748,301.237 59.783,301.248 C59.829,301.263 59.856,301.179 59.891,301.19 C59.938,301.205 59.978,301.241 60.025,301.256 C60.071,301.271 60.707,300.729 60.801,300.596 L60.83,300.465 C61.035,300.344 61.269,299.929 61.398,299.527 C61.519,299.145 61.378,299.147 61.466,298.872 C61.615,298.406 61.484,298.294 61.365,298.022 C61.39,297.984 61.397,297.963 61.411,297.92 C61.465,297.75 61.283,297.716 61.317,297.61 C61.337,297.546 61.369,297.486 61.394,297.448 C61.321,297.074 61.145,296.738 61.043,296.332 C60.968,296.004 60.755,295.866 60.61,295.634 C60.482,295.431 60.473,295.056 60.286,294.996 C60.17,294.959 59.656,294.514 59.703,294.365 C59.155,293.747 58.823,293.456 58.345,293.304 C58.112,293.229 57.833,293.256 57.6,293.181 C57.553,293.167 57.513,293.131 57.466,293.116 C57.115,293.05 56.522,293.419 56.246,293.681 M60.386,295.772 C60.409,295.779 60.458,295.748 60.493,295.759" id="Fill-22" fill="#F6BD28" sketch:type="MSShapeGroup"></path>
        </g>
    </g>
</svg>